<?xml version="1.0" encoding="utf-8"?>
<!-- Generator: Adobe Illustrator 24.2.3, SVG Export Plug-In . SVG Version: 6.00 Build 0)  -->
<svg version="1.1" id="Layer_1" xmlns="http://www.w3.org/2000/svg" xmlns:xlink="http://www.w3.org/1999/xlink" x="0px" y="0px"
	 viewBox="0 0 400 400" style="enable-background:new 0 0 400 400;" xml:space="preserve">
<style type="text/css">
	.st0{fill:#FFFFFF;}
</style>
<g>
	<path class="st0" d="M200,224.9c13.9,0,25.2-11.3,25.2-25.2c0-13.9-11.3-25.2-25.2-25.2c-13.9,0-25.2,11.3-25.2,25.2
		C174.8,213.6,186.1,224.9,200,224.9z M180.4,199.7c0-10.8,8.8-19.6,19.6-19.6s19.6,8.8,19.6,19.6c0,10.8-8.8,19.6-19.6,19.6
		S180.4,210.5,180.4,199.7z"/>
	<path class="st0" d="M161.9,316.8l0,0.2l10.2,9.4v74.1h55.7v-74.1L238,317l3.1-84.2h-82.2L161.9,316.8z M222.2,323.9v70.9h-44.4
		v-70.9l-10.3-9.5l-2.8-76h70.5l-2.8,76L222.2,323.9z"/>
	<path class="st0" d="M272,238.4c13.9,0,25.2-11.3,25.2-25.2S285.9,188,272,188c-13.9,0-25.2,11.3-25.2,25.2S258.1,238.4,272,238.4z
		 M252.5,213.2c0-10.8,8.8-19.6,19.6-19.6c10.8,0,19.6,8.8,19.6,19.6c0,10.8-8.8,19.6-19.6,19.6C261.2,232.8,252.5,224,252.5,213.2z
		"/>
	<polygon class="st0" points="253.4,244 253.4,249.7 296.1,249.7 293.7,315.1 285.2,322.9 285.2,382.8 250.9,382.8 250.9,388.5 
		290.8,388.5 290.8,325.4 299.3,317.6 302,244 	"/>
	<path class="st0" d="M128,188c-13.9,0-25.2,11.3-25.2,25.2s11.3,25.2,25.2,25.2c13.9,0,25.2-11.3,25.2-25.2S141.9,188,128,188z
		 M147.5,213.2c0,10.8-8.8,19.6-19.6,19.6c-10.8,0-19.6-8.8-19.6-19.6c0-10.8,8.8-19.6,19.6-19.6
		C138.8,193.7,147.5,202.4,147.5,213.2z"/>
	<polygon class="st0" points="114.8,322.9 106.3,315.1 103.9,249.7 146.6,249.7 146.6,244 98,244 100.7,317.4 100.7,317.6 
		109.2,325.4 109.2,388.5 149.1,388.5 149.1,382.8 114.8,382.8 	"/>
</g>
</svg>
