<?xml version="1.0" encoding="utf-8"?>
<!-- Generator: Adobe Illustrator 24.0.0, SVG Export Plug-In . SVG Version: 6.00 Build 0)  -->
<svg version="1.1" id="Layer_1" xmlns="http://www.w3.org/2000/svg" xmlns:xlink="http://www.w3.org/1999/xlink" x="0px" y="0px"
	 viewBox="0 0 400 400" style="enable-background:new 0 0 400 400;" xml:space="preserve">
<title>intl-leisure-travel</title>
<g>
	<path d="M40,400c0-48.5,0-96.9,0-145.4c0-8,0-8,8.3-8c30.1,0,60.2,0,90.3,0c1.7,0,3.7,0,6.3,0c0-6.9-0.3-13.2,0.3-19.8
		c0.3-2.6,1.4-6,3.2-7.7c15.8-16.1,31.8-31.8,47.6-47.9c3.4-3.4,5.4-3.7,8.9,0c15.8,16.1,32.1,32.1,48.2,48.2
		c1.7,1.7,2.9,4.6,2.9,6.9c0.3,6.6,0,13.2,0,20.4c34.7,0,69.4,0,104.1,0c0,51,0,102.1,0,153.4c-43.9,0-87.5,0-131.3,0
		c-0.3-2-0.6-4-0.9-6c0-14.3,0-29,0-43.3c0-12.9-7.7-21.5-20.4-23.2c-4.3-0.6-8.6-0.6-12.9,0c-13.5,1.4-21.5,10.3-21.5,23.8
		c0,14.3,0,28.7,0,42.7c0,2-0.6,4-0.9,6C128,400,84.2,400,40,400z M354.8,252.6c-4.3,0-7.7,0-11.5,0c-29,0-57.9,0-86.9,0
		c-6.3,0-6.6-0.3-6.6-6.6c0-5.2-0.3-10.3,0-15.5c0.3-4-1.1-6.9-4-9.7c-13.8-13.8-27.5-27.8-41.6-41.6c-1.1-1.1-2.3-2.3-3.7-3.4
		c-1.4,1.4-2.6,2.3-3.7,3.4c-10.3,10.3-20.4,20.4-30.7,30.7c-4.9,4.9-11.5,8.9-14.1,14.9c-2.6,6-0.9,13.8-0.9,20.9
		c0,6.9,0,7.2-7.2,7.2c-30.7,0-61.6,0-92.3,0c-1.7,0-3.4,0-5.2,0c0,47.9,0,94.9,0,141.9c40.4,0,80.3,0,120.1,0
		c0.3-0.6,0.3-1.1,0.3-1.4c0-13.5,0-27,0-40.4c0-3.4,0-6.9,0.9-10c3.2-13.2,14.3-21.2,30.7-22.1c18.6-0.9,37,9.2,35.6,33
		c-0.6,10.6,0,21.2,0,31.8c0,2.9,0,6,0,8.9c40.7,0,80.6,0,120.7,0C354.8,347.2,354.8,300.2,354.8,252.6z"/>
	<path d="M200.6,151.4c-1.7,2.3-2.6,4.3-3.7,5.4c-18.9,18.9-37.6,37.6-56.5,56.5c-3.4,3.4-5.7,3.4-8.9,0c-2.3-2.6-4.9-4.9-7.5-7.5
		c-4.6-4.6-4.6-4.9,0-9.2c23.8-22.7,47.3-45,70.8-67.7c0.9-0.9,2-1.7,2.9-2.9c2-2.3,4-2,6,0c24.4,23.5,49,47,73.4,70.5
		c2,2,2.3,3.7,0,6c-2.9,2.9-5.7,5.7-8.6,8.6c-4.9,4.9-5.2,4.9-10,0c-18.1-18.1-36.1-36.1-53.9-54.5
		C203.7,155.7,202.6,154.3,200.6,151.4z M136.3,208.7c1.4-1.1,2.6-2.6,4-3.7c18.6-18.6,37.3-37.3,55.9-55.9c4.6-4.6,4.6-4.6,9.2,0
		c18.1,18.4,36.4,36.4,54.5,54.8c1.1,1.1,2.6,2.6,3.7,3.4c2.9-2.6,5.4-4.9,8.3-7.2c-23.8-22.9-47.3-45.3-71.1-68
		c-24.4,23.2-48.5,46.2-72.3,68.8C131.5,203.6,133.8,206.2,136.3,208.7z"/>
	<path d="M200.3,285.9c9.2,0,18.6,0.3,27.8,0c4.9-0.3,6.3,1.7,6,6c-0.3,4.3,0,8.6,0,13.2c0,2.9-1.1,4.3-4.3,4.3c-19.5,0-39,0-58.5,0
		c-3.4,0-4.6-1.4-4.3-4.6c0-4.6,0-9.5,0-14.1c0-3.4,1.1-4.9,4.9-4.9C181.4,285.9,190.8,285.9,200.3,285.9z M227.8,292.5
		c-18.1,0-36.4,0-54.5,0c0,3.7,0,7.2,0,10.6c18.4,0,36.1,0,54.5,0C227.8,299.4,227.8,296.2,227.8,292.5z"/>
	<path d="M57.5,340.9c0-5.2,0-10,0-15.2c0-3.4,1.4-5.2,5.2-5.2c10.3,0,20.9,0,31.3,0c3.7,0,5.2,1.4,4.9,5.2
		c-0.3,10.3-0.3,20.4,0,30.7c0,4-1.7,5.2-5.4,5.2c-10-0.3-20.1-0.3-30.1,0c-4.3,0-5.7-1.7-5.4-5.7C57.5,351,57.5,346.1,57.5,340.9z
		 M63.8,326.9c0,9.7,0,19.2,0,28.4c9.7,0,18.9,0,28.4,0c0-9.5,0-18.9,0-28.4C82.7,326.9,73.5,326.9,63.8,326.9z"/>
	<path d="M151,341.5c0,5.2,0,10,0,15.2c0,3.7-1.1,5.2-4.9,5.2c-10.3,0-20.9-0.3-31.3,0c-3.7,0-5.2-1.7-5.2-5.2c0-10.3,0-20.4,0-30.7
		c0-3.4,1.4-5.2,5.2-5.2c10.3,0,20.9,0,31.3,0c3.7,0,5.2,1.4,4.9,5.2C151,331.2,151,336.3,151,341.5z M144.7,355.6
		c0-9.7,0-18.9,0-28.4c-9.7,0-18.9,0-28.4,0c0,9.7,0,18.9,0,28.4C126,355.6,135.2,355.6,144.7,355.6z"/>
	<path d="M270.5,361.6c-5.2,0-10.3,0-15.5,0c-3.4,0-4.9-1.1-4.9-4.6c0-10.6,0-21.2,0-31.8c0-3.4,1.7-4.9,4.9-4.6
		c10.3,0,20.9,0,31.3,0c3.7,0,5.2,1.4,5.2,5.2c0,10.3,0,20.4,0,30.7c0,4-1.7,5.4-5.4,5.2C280.6,361.6,275.4,361.6,270.5,361.6z
		 M284.6,355.6c0-9.7,0-18.9,0-28.4c-9.7,0-18.9,0-28.4,0c0,9.7,0,18.9,0,28.4C265.9,355.6,275.1,355.6,284.6,355.6z"/>
	<path d="M323,361.6c-5.2,0-10.3,0-15.5,0c-3.4,0-4.9-1.1-4.9-4.6c0-10.6,0-21.2,0-31.8c0-3.7,1.7-4.6,4.9-4.6c10.3,0,20.9,0,31.3,0
		c3.7,0,5.2,1.7,5.2,5.2c0,10.3,0,20.4,0,30.7c0,4-1.7,5.4-5.4,5.2C333,361.6,327.9,361.6,323,361.6z M309,326.9
		c0,9.7,0,18.9,0,28.4c9.7,0,18.9,0,28.4,0c0-9.5,0-18.9,0-28.4C327.6,326.9,318.4,326.9,309,326.9z"/>
	<path d="M98.5,288.7c0,5.4,0,10.6,0,16.1c0,3.2-1.1,4.6-4.6,4.6c-10.6,0-21.5,0-32.1,0c-3.4,0-4.6-1.7-4.6-4.6
		c0-10.6,0-21.2,0-31.8c0-3.2,1.4-4.6,4.6-4.6c10.6,0,21.5,0,32.1,0c3.2,0,4.6,1.4,4.3,4.6C98.5,278.1,98.5,283.6,98.5,288.7z
		 M63.8,302.8c9.7,0,19.2,0,28.4,0c0-9.5,0-18.6,0-28.1c-9.5,0-18.9,0-28.4,0C63.8,284.2,63.8,293.3,63.8,302.8z"/>
	<path d="M151,289c0,5.2,0,10.3,0,15.5c0,3.4-1.4,4.9-4.9,4.9c-10.6,0-21.2,0-31.8,0c-3.2,0-4.6-1.4-4.6-4.6c0-10.6,0-21.5,0-32.1
		c0-2.9,1.4-4.3,4.3-4.3c10.6,0,21.5,0,32.1,0c3.4,0,4.6,1.7,4.6,4.9C151,278.7,151,283.9,151,289z M144.7,303.1
		c0-9.7,0-18.9,0-28.4c-9.5,0-18.9,0-28.4,0c0,9.5,0,18.9,0,28.4C126,303.1,135.2,303.1,144.7,303.1z"/>
	<path d="M270.3,309.4c-5.4,0-10.6,0-16.1,0c-2.9,0-4.3-1.4-4.3-4.3c0-10.6,0-21.5,0-32.1c0-3.4,1.7-4.6,4.6-4.6
		c10.6,0,21.2,0,31.8,0c3.4,0,4.9,1.4,4.9,4.9c0,10.3,0,20.9,0,31.3c0,3.7-1.7,5.2-5.2,4.9C280.6,309.1,275.4,309.4,270.3,309.4z
		 M256.2,274.4c0,10,0,19.2,0,28.4c9.5,0,18.9,0,28.7,0c0-8.9,0-17.2,0-25.8c0-0.9-1.7-2.6-2.6-2.6
		C273.7,274.4,265.1,274.4,256.2,274.4z"/>
	<path d="M323.3,309.4c-5.4,0-10.6,0-16.1,0c-3.4,0-4.9-1.4-4.9-4.9c0-10.3,0-20.9,0-31.3c0-3.4,1.1-4.9,4.6-4.9
		c10.6,0,21.2,0,31.8,0c3.4,0,4.9,1.4,4.9,4.9c0,10.3,0,20.9,0,31.3c0,3.7-1.7,5.2-5.2,4.9C333.3,309.1,328.2,309.4,323.3,309.4z
		 M337.1,303.1c0-9.7,0-18.9,0-28.4c-9.7,0-18.9,0-28.4,0c0,9.7,0,18.9,0,28.4C318.4,303.1,327.6,303.1,337.1,303.1z"/>
	<path d="M216.6,236.3c0,9.2-7.2,16.3-16.3,16.3c-8.9,0-16.1-7.2-16.1-16.1s6.9-16.1,15.8-16.3C209.2,220.2,216.6,227.1,216.6,236.3
		z M190.5,236.6c0,5.4,4.6,9.7,10,10c5.7,0,10.3-4.6,10.3-10.3s-4.6-10-10.6-9.7C194.6,226.5,190.3,231.1,190.5,236.6z"/>
</g>
</svg>
