<?xml version="1.0" encoding="utf-8"?>
<!-- Generator: Adobe Illustrator 24.2.3, SVG Export Plug-In . SVG Version: 6.00 Build 0)  -->
<svg version="1.1" id="Layer_1" xmlns="http://www.w3.org/2000/svg" xmlns:xlink="http://www.w3.org/1999/xlink" x="0px" y="0px"
	 viewBox="0 0 400 400" style="enable-background:new 0 0 400 400;" xml:space="preserve">
<style type="text/css">
	.st0{fill:#FFFFFF;}
</style>
<path class="st0" d="M228.5,322.7l79.2,76.4c1.4,1.2,3.4,1.2,4.8,0c1.2-1.2,1-3.4-0.2-4.5l0,0l-79-76.4l1.2-1.4
	c15.3-16.8,23.2-38.5,22.3-61.3c-1-22.7-10.8-43.8-27.5-59.1c-34.5-31.6-88.6-29.4-120.2,5.3c-31.8,34.5-29.4,88.6,5.3,120.4
	c31.4,29.2,80,29.9,113,1.7L228.5,322.7z M93.7,259c0-43.1,35.2-78.5,78.5-78.5s78.5,35.2,78.5,78.5s-35.2,78.5-78.5,78.5
	C128.9,337.3,93.7,302.1,93.7,259z"/>
</svg>
