<?xml version="1.0" encoding="utf-8"?>
<!-- Generator: Adobe Illustrator 24.0.0, SVG Export Plug-In . SVG Version: 6.00 Build 0)  -->
<svg version="1.1" id="Layer_1" xmlns="http://www.w3.org/2000/svg" xmlns:xlink="http://www.w3.org/1999/xlink" x="0px" y="0px"
	 viewBox="0 0 400 400" style="enable-background:new 0 0 400 400;" xml:space="preserve">
<title>intl-leisure-travel</title>
<g>
	<g>
		<path d="M206.6,398.4c-2.2-1.6-4.4-3.4-6.6-5c-2.6-1.6-2.6-3.4-0.6-5.8c3.6-4,7-8,10.4-12c4.4-5,5-9.4,2.4-14.1
			c-2.8-5-6.8-7-13.3-6c-2.6,0.4-3.4-0.8-4-3c-2.2-9.2-7.6-12.9-16.7-11.6c-3,0.4-4-0.6-4.4-3.4c-1.4-10-9.2-15.5-19.1-13.5
			c-3.4,0.8-4.8,0.2-5.2-3.4c-0.8-6.4-4.4-10.8-10.8-12.5c-6.4-1.8-12.2-0.4-16.7,4.6c-3,3.2-5.8,6.4-8.6,9.8
			c-1.8,2.2-3.6,2.2-5.6,0c-7.6-8.8-15.3-17.5-22.7-26.5c-1-1-1.2-3.8-0.4-5c9.8-16.5,19.9-33.1,29.9-49.4c1-1.8,2.2-3.2,4.6-2
			c12.9,6.2,26.7,5.4,40.4,4.2c5.6-0.4,11.2-0.4,16.7-0.4c1.2,0,3,0.8,3.4,1.8c0.4,0.8-0.4,2.6-1.2,3.6
			c-6.6,7.8-13.3,15.1-19.9,22.9c-7,8.4-6.8,19.3,0.6,26.7c7.6,7.8,20.1,7.6,27.5-0.6c8-8.8,15.5-17.7,23.5-26.5
			c3.6-4,3.6-4,7.6-0.4c19.1,16.3,38.2,32.7,57.4,49c7.6,6.4,9.8,12.7,6.8,20.9c-2.6,7.2-9.8,12-18.1,11c-0.2,0-0.6,0.2-1,0.2
			c-0.8,6.2-3.4,12-9.4,13.9c-5.2,1.8-8,4.2-10,9.2c-1.8,4.8-6.4,7-11.6,8.2c-1.2,0.2-2.8,1.2-3,2.2c-1.2,6.2-5.2,9.8-10.4,12.7
			C214.8,400.4,211.2,400.7,206.6,398.4z M204,390c4,3.8,8.2,5.2,13.1,3.2s7.4-5.8,7.4-11c0-2.4,0.4-4,3.4-4c8.6,0,12.5-3.6,13.1-12
			c0.2-2.6,1-3.6,3.8-3.4c8,0.6,13.3-5.2,12.7-13.1c-0.4-3.6,0.8-4.6,4.2-3.6c7,1.8,12.2-0.2,14.9-5.6c2.8-5.6,1.6-11.6-3.6-15.9
			c-14.5-12.5-29.1-24.9-43.8-37.2c-5-4.2-10-8.4-14.9-12.7c-8.2,9.2-15.9,18.3-23.9,27.1c-7.2,7.8-18.9,9.8-28.3,5
			s-15.1-15.9-12.5-26.1c1.2-4.6,3.6-9,6.6-12.7c5-6.6,10.8-12.5,16.9-19.5c-10.2,0.6-18.9,2-27.7,1.6c-8.8-0.2-17.5-2.2-26.3-3.4
			c-1,0-1.8,1.2-2.6,2.6c-7.6,12.5-15.3,25.1-22.9,37.6c-4,6.8-4,6.8,1.2,12.5c5.4,6.2,10.8,12.5,16.5,18.9
			c6.6-7.6,12-15.9,22.9-15.5c11,0.2,17.7,6,20.7,16.3c12.9-1.2,20.9,4.6,24.5,16.7c10.4-0.2,17.5,4.4,20.5,14.1
			c0.6,0.2,1,0.2,1.4,0.2c7.8,0.2,13.1,4,16.1,11s0.8,12.9-4,18.3C210.4,382.8,207.4,386.2,204,390z"/>
		<path d="M331.3,295.2c-7,4.2-11.4,3.2-15.5-3.8c-10.6-17.5-20.9-34.9-31.5-52.4c-4.4-7.2-3.2-11.6,4-15.9c8-5,16.1-9.8,24.1-14.9
			c3.2-2,4.8-1.4,6.6,1.6c12,20.3,24.1,40.4,36.3,60.6c0.8,1.2,4.8,8.3,4.8,8.3S340.1,289.8,331.3,295.2z M314.6,212.7
			c-8.8,5.4-17.3,10.6-25.9,15.9c-2.4,1.4-2.6,3.8-1.2,6.2c11.2,18.5,22.1,36.9,33.3,55.2c0.8,1.4,4.2,2.6,5.4,2
			c8.8-5,17.3-10.4,26.1-15.7C339.9,255,327.3,234.1,314.6,212.7z"/>
		<path d="M213.8,264.1c-9.6,11-18.9,21.7-28.3,32.3c-4.8,5.6-12.3,7.2-18.9,4.4c-7-3-11.6-9.2-10.6-16.3c0.4-3.6,2-7.6,4.4-10.6
			c9.2-11,18.7-21.7,28.3-32.3c4.4-5,10-6.8,16.5-5.2c12.2,2.8,24.3,5.8,36.7,8c12,2.2,23.9,1.2,35.3-2.8c3.2-1.2,5-0.6,6.8,2.4
			c9.4,15.5,18.7,30.9,28.1,46.2c1.6,2.6,1.6,4.2-0.4,6.6c-7.8,8.8-15.5,17.7-23.1,26.7c-2.4,2.8-3.8,3-6.6,0
			c-4.4-4.8-9.6-9-14.3-13.1C249.6,295,231.9,279.7,213.8,264.1z M307.8,293.2c-9.2-15.1-18.3-30.1-27.5-45c-1.4-2.4-2.8-1.4-4.6-1
			c-11.4,3.4-23.1,4.2-34.7,2.2c-12.2-2.2-24.1-5-36.3-7.8c-5.6-1.4-10,0.2-13.7,4.4c-8.8,10.2-17.7,20.3-26.5,30.5
			c-5.2,6-5.2,12.7,0,17.3c5.6,5,12.7,4.4,17.9-1.6c9-10.2,17.9-20.5,26.9-30.7c3.6-4.2,4-4.2,8-0.8c10.8,9.4,21.7,18.7,32.5,28.1
			c11.8,10.2,23.5,20.3,35.5,30.5C292.9,310.3,300.2,301.8,307.8,293.2z"/>
		<path d="M72.9,297.8c-1.2-0.6-3.2-1-5-2.2c-8.6-5-16.7-10.4-25.3-15.3c-3-1.8-3.4-3.2-1.6-6.4c13.1-21.1,26.3-42.6,39.2-64.1
			c2-3.2,3.6-3.4,6.6-1.4c8.2,5.2,16.5,10.2,24.7,15.3c6,3.8,7.2,8.4,3.6,14.3c-11,18.1-22.1,36.3-33.1,54.4
			C80.3,295.8,77.7,297.4,72.9,297.8z M84.5,212.7c-13.1,21.5-25.9,42.2-38.6,63.3c8.8,5.4,17.1,10.4,25.7,15.5c2.6,1.6,5,1,6.4-1.6
			c11.4-18.5,22.5-36.9,33.7-55.4c1.4-2.4,1.2-4.6-1.2-6.2C101.8,223.5,93.3,218.3,84.5,212.7z"/>
		<path d="M117.2,359.5c-4.6,0.8-11-2.8-13.3-7.4c-2.4-4.6-2.6-9.4,0.8-13.3c6.8-8.2,13.9-16.3,21.3-23.9c5-5.2,13.1-5,18.1-0.2
			c5.4,5,5.8,12.7,1,18.3c-6.2,7.2-12.2,14.3-18.9,21.1C123.3,356.8,121.8,358.7,117.2,359.5z M143.4,324.5c0.2-3.6-2.2-6.6-5.7-8
			c-3.8-1.4-7-0.2-9.4,2.6c-6.2,6.8-12.2,13.7-18.3,20.5c-3.8,4.4-3.6,9.2,0.2,12.5c3.6,3.2,8.4,2.8,12.2-1.4
			c6.2-6.8,18.5-20.9,18.5-20.9S143.3,326.9,143.4,324.5z"/>
		<path d="M141.3,372.5c-4.4-0.2-8.4-2.6-10.8-7.4c-2.4-4.8-2.2-9.6,1.2-13.7c5.8-7,11.6-13.7,17.7-20.5c5.2-5.6,13.1-5.8,18.3-1
			c5.6,5.2,6.2,12.9,1,18.9c-5.4,6.2-13,14.8-16.1,18.5C149.5,371.1,146.6,372.7,141.3,372.5z M167.6,341c0.5-3.6-1.8-7.4-5.4-8.8
			c-3.8-1.6-7.2-0.2-9.8,2.6c-5.4,6.2-10.8,12.2-16.1,18.5c-3.4,4-3,9.2,0.8,12.2c3.6,3,8.4,2.4,11.8-1.4
			c5.4-6.2,16.1-18.5,16.1-18.5S167.2,343.6,167.6,341z"/>
		<path d="M166.8,386c-3.7,0-9.4-2.2-11.4-6.2c-2.2-4-2.2-8.2,0.6-11.8c5.8-7.2,11.8-14.1,18.1-20.7c4-4.4,10.8-4.2,15.1-0.4
			c4.6,4,5.4,10.6,1.6,15.3c-5.8,7-11.6,13.7-17.7,20.3C171.3,384.6,170.4,386,166.8,386z M188.5,355.6c0-2.4-2.4-4.6-4.2-5.6
			c-2.8-1.6-5.4-0.4-7.4,1.8c-5.4,6-10.6,12-15.7,18.1c-2.8,3.4-2.6,7.2,0.4,9.6c2.8,2.2,6.4,2,9.2-1.2c5.2-6,10.4-11.8,15.5-17.9
			C187.3,359.1,188.5,358,188.5,355.6z"/>
		<path d="M211,369.3c-1.1,3.2-1.4,3.6-3,5.6c-4.2,5.4-8.8,10.4-13.3,15.5c-4,4.4-9.6,5.2-13.7,1.8c-4.4-3.6-5-9.6-1.2-14.1
			c4.6-5.6,9.4-11,14.1-16.3c3-3.4,7.2-4,11-2.4C208.8,360.9,212.1,366.1,211,369.3z M206.4,367.9c0-2.1-2-3.6-3.4-3.8
			c-1.8-0.4-4.4,0.2-5.4,1.4c-4.8,5-9,10.2-13.3,15.3c-2.2,2.4-2.6,5.2,0,7.4c2.8,2.4,5.2,1.2,7.2-1.4c4.2-4.8,8.4-9.6,12.5-14.5
			C204.8,371.1,206.4,370,206.4,367.9z"/>
	</g>
</g>
</svg>
