<?xml version="1.0" encoding="utf-8"?>
<!-- Generator: Adobe Illustrator 24.2.3, SVG Export Plug-In . SVG Version: 6.00 Build 0)  -->
<svg version="1.1" id="Layer_1" xmlns="http://www.w3.org/2000/svg" xmlns:xlink="http://www.w3.org/1999/xlink" x="0px" y="0px"
	 viewBox="0 0 400 400" style="enable-background:new 0 0 400 400;" xml:space="preserve">
<style type="text/css">
	.st0{fill:#FFFFFF;}
</style>
<g>
	<g>
		<path class="st0" d="M349.3,382.8c0.1,0.3,0.3,0.5,0.4,0.7c0,0,0.1,0.1,0.1,0.1l0.1,0.1l0.1,0.1c0.1,0.1,0.1,0.1,0.2,0.2
			c0.1,0.1,0.2,0.3,0.3,0.4c0.1,0.1,0.3,0.2,0.4,0.3c0.1,0,0.1,0.1,0.2,0.2c0.3,0.3,0.6,0.4,0.8,0.5l0.1,0.1
			c0.2,0.1,0.4,0.2,0.6,0.2c0.1,0,0.2,0,0.2,0.1c0.5,0.2,0.8,0.2,1.1,0.2c0.3,0,0.5,0,0.7-0.1c0.4,0,0.8-0.1,1.1-0.3
			c0.3-0.1,0.5-0.3,0.6-0.4c0,0,0.1-0.1,0.1-0.1l0.1-0.1l0.1-0.1c0.1-0.1,0.1-0.1,0.2-0.2c0.1-0.1,0.3-0.2,0.4-0.3
			c0.1-0.1,0.2-0.3,0.3-0.4c0-0.1,0.1-0.1,0.2-0.2c0.3-0.3,0.4-0.6,0.5-0.8l0.1-0.1c0.1-0.2,0.2-0.4,0.2-0.6c0-0.1,0-0.2,0.1-0.2
			c0.2-0.5,0.2-0.8,0.2-1.1c0-0.3,0-0.7-0.1-1c0-0.4-0.2-0.7-0.3-0.9c-0.1-0.3-0.3-0.5-0.4-0.7c0,0-0.1-0.1-0.1-0.1l-0.2-0.3
			c-0.1-0.1-0.1-0.1-0.2-0.2c-0.1-0.1-0.2-0.3-0.3-0.4c-0.1-0.1-0.3-0.2-0.4-0.3c-0.1,0-0.1-0.1-0.2-0.2l-0.1-0.1l-0.1-0.1
			c-0.1-0.1-0.3-0.1-0.4-0.2c-0.1,0-0.2-0.1-0.3-0.1c-0.2-0.1-0.4-0.2-0.6-0.2c-0.1,0-0.2,0-0.2-0.1l-0.1,0c-0.6-0.1-1.2-0.1-1.8,0
			c-0.3,0-0.6,0.1-0.8,0.2c-0.4,0.1-0.7,0.2-0.9,0.4l-0.1,0.1l-0.1,0.1c-0.1,0.1-0.1,0.1-0.2,0.2c-0.1,0.1-0.3,0.2-0.4,0.3
			c-0.1,0.1-0.2,0.3-0.3,0.4c0,0.1-0.1,0.1-0.2,0.2c-0.3,0.3-0.4,0.6-0.5,0.8l-0.1,0.1c-0.1,0.2-0.2,0.4-0.2,0.6
			c0,0.1,0,0.2-0.1,0.2c-0.2,0.5-0.2,0.8-0.2,1.1c0,0.3,0,0.7,0.1,1C349.1,382.2,349.2,382.6,349.3,382.8z"/>
		<path class="st0" d="M380.8,266.8H327c-5.8,0-10.5,4.7-10.5,10.5v111.1c0,5.8,4.7,10.5,10.5,10.5h53.8c5.8,0,10.5-4.7,10.5-10.5
			V277.3C391.3,271.4,386.7,266.8,380.8,266.8z M327,271.4h53.8c3.3,0,5.9,2.6,5.9,5.9v3.8h-65.6v-3.8
			C321.1,274,323.7,271.4,327,271.4z M321.1,364.4v-78.7h65.7v78.7H321.1z M386.8,369l-0.1,19.4v0c0,3.3-2.6,5.9-5.9,5.9H327
			c-3.3,0-5.9-2.6-5.9-5.9V369H386.8z"/>
	</g>
	<g>
		<g>
			<g>
				<rect x="245.1" y="309.4" class="st0" width="29.7" height="29.7"/>
			</g>
			<g>
				<path class="st0" d="M181.7,339.1H39.3c-1.6,0-3-1.3-3-3s1.3-3,3-3h142.4c1.6,0,3,1.3,3,3S183.4,339.1,181.7,339.1z"/>
				<path class="st0" d="M229.2,327.2H39.3c-1.6,0-3-1.3-3-3c0-1.6,1.3-3,3-3h189.9c1.6,0,3,1.3,3,3
					C232.2,325.9,230.9,327.2,229.2,327.2z"/>
			</g>
			<path class="st0" d="M74.9,315.3H39.3c-1.6,0-3-1.3-3-3s1.3-3,3-3h35.6c1.6,0,3,1.3,3,3S76.6,315.3,74.9,315.3z"/>
		</g>
		<path class="st0" d="M278.7,172.9H31.4c-11.9,0-21.7,9.8-21.7,21.7v146.5c0,11.9,9.8,21.7,21.7,21.7h113.9l-4.2,29.7H83.8
			c-1.6,0-3,1.3-3,3c0,1.6,1.3,3,3,3h142.4c1.6,0,3-1.3,3-3c0-1.6-1.3-3-3-3H169l-4.2-29.7h113.9c11.9,0,21.7-9.8,21.7-21.7V194.6
			C300.4,182.7,290.7,172.9,278.7,172.9z M163.6,392.5h-17.1l4.2-29.7h8.6L163.6,392.5z M294.5,341.1c0,8.7-7.1,15.8-15.8,15.8
			H168.4h-4.5h-17.8h-4.5H31.4c-8.7,0-15.8-7.1-15.8-15.8V194.6c0-8.7,7.1-15.8,15.8-15.8h247.4c8.7,0,15.8,7.1,15.8,15.8
			L294.5,341.1L294.5,341.1z"/>
	</g>
</g>
</svg>
