<?xml version="1.0" encoding="utf-8"?>
<!-- Generator: Adobe Illustrator 24.0.0, SVG Export Plug-In . SVG Version: 6.00 Build 0)  -->
<svg version="1.1" id="Layer_1" xmlns="http://www.w3.org/2000/svg" xmlns:xlink="http://www.w3.org/1999/xlink" x="0px" y="0px"
	 viewBox="0 0 400 400" style="enable-background:new 0 0 400 400;" xml:space="preserve">
<style type="text/css">
	.st0{stroke:#000000;stroke-width:2;stroke-miterlimit:10;}
</style>
<title>intl-leisure-travel</title>
<g>
	<g>
		<path class="st0" d="M353.9,384.9c-0.3,0-0.5,0-0.8-0.1c-0.3-0.1-0.5-0.1-0.7-0.2c-0.2-0.1-0.5-0.2-0.7-0.4
			c-0.2-0.2-0.4-0.3-0.6-0.5c-0.2-0.2-0.3-0.4-0.5-0.6c-0.1-0.2-0.3-0.4-0.4-0.7c-0.1-0.2-0.2-0.5-0.2-0.7c-0.1-0.2-0.1-0.5-0.1-0.8
			c0-0.3,0-0.5,0.1-0.8c0.1-0.3,0.1-0.5,0.2-0.7c0.1-0.2,0.2-0.5,0.4-0.7c0.2-0.2,0.3-0.4,0.5-0.6c0.2-0.2,0.4-0.3,0.6-0.5
			c0.2-0.1,0.4-0.3,0.7-0.3c0.2-0.1,0.5-0.2,0.7-0.2c0.5-0.1,1-0.1,1.5,0c0.3,0.1,0.5,0.1,0.7,0.2c0.2,0.1,0.5,0.2,0.7,0.3
			c0.2,0.2,0.4,0.3,0.6,0.5c0.2,0.2,0.3,0.4,0.5,0.6c0.1,0.2,0.3,0.4,0.4,0.7c0.1,0.2,0.2,0.5,0.2,0.7c0.1,0.2,0.1,0.5,0.1,0.8
			c0,0.3,0,0.5-0.1,0.8c-0.1,0.3-0.1,0.5-0.2,0.7c-0.1,0.2-0.2,0.5-0.4,0.7c-0.2,0.2-0.3,0.4-0.5,0.6c-0.2,0.2-0.4,0.3-0.6,0.5
			c-0.2,0.1-0.4,0.3-0.7,0.4c-0.2,0.1-0.5,0.2-0.7,0.2C354.4,384.8,354.2,384.9,353.9,384.9z"/>
		<path class="st0" d="M380.8,267.8H327c-5.2,0-9.5,4.3-9.5,9.5v4.8V368v20.4c0,5.2,4.3,9.5,9.5,9.5h53.8c5.2,0,9.5-4.3,9.5-9.5V368
			v-85.9v-4.8C390.3,272,386.1,267.8,380.8,267.8z M320.1,284.7h67.7v80.7h-67.7V284.7z M387.7,388.4c0,3.8-3.1,6.9-6.9,6.9H327
			c-3.8,0-6.9-3.1-6.9-6.9V368h67.7V388.4z M320.1,282.1v-4.8c0-3.8,3.1-6.9,6.9-6.9h53.8c3.8,0,6.9,3.1,6.9,6.9v4.8H320.1z"/>
	</g>
	<g>
		<g>
			<g>
				<rect x="245.1" y="309.4" width="29.7" height="29.7"/>
			</g>
			<g>
				<path d="M181.7,339.1H39.3c-1.6,0-3-1.3-3-3s1.3-3,3-3h142.4c1.6,0,3,1.3,3,3S183.4,339.1,181.7,339.1z"/>
				<path d="M229.2,327.2H39.3c-1.6,0-3-1.3-3-3c0-1.6,1.3-3,3-3h189.9c1.6,0,3,1.3,3,3C232.2,325.9,230.9,327.2,229.2,327.2z"/>
			</g>
			<path d="M74.9,315.3H39.3c-1.6,0-3-1.3-3-3s1.3-3,3-3h35.6c1.6,0,3,1.3,3,3S76.6,315.3,74.9,315.3z"/>
		</g>
		<path d="M278.7,172.9H31.4c-11.9,0-21.7,9.8-21.7,21.7v146.5c0,11.9,9.8,21.7,21.7,21.7h113.9l-4.2,29.7H83.8c-1.6,0-3,1.3-3,3
			c0,1.6,1.3,3,3,3h142.4c1.6,0,3-1.3,3-3c0-1.6-1.3-3-3-3H169l-4.2-29.7h113.9c11.9,0,21.7-9.8,21.7-21.7V194.6
			C300.4,182.7,290.7,172.9,278.7,172.9z M163.6,392.5h-17.1l4.2-29.7h8.6L163.6,392.5z M294.5,341.1c0,8.7-7.1,15.8-15.8,15.8
			H168.4h-4.5h-17.8h-4.5H31.4c-8.7,0-15.8-7.1-15.8-15.8V194.6c0-8.7,7.1-15.8,15.8-15.8h247.4c8.7,0,15.8,7.1,15.8,15.8V341.1z"/>
	</g>
</g>
</svg>
