<?xml version="1.0" encoding="utf-8"?>
<!-- Generator: Adobe Illustrator 24.2.3, SVG Export Plug-In . SVG Version: 6.00 Build 0)  -->
<svg version="1.1" id="Layer_1" xmlns="http://www.w3.org/2000/svg" xmlns:xlink="http://www.w3.org/1999/xlink" x="0px" y="0px"
	 viewBox="0 0 400 400" style="enable-background:new 0 0 400 400;" xml:space="preserve">
<style type="text/css">
	.st0{fill:#FFFFFF;}
</style>
<g>
	<path class="st0" d="M292.2,272.9h-0.6l-36.9,18.8v-18.6c0-5.9-4.7-10.6-10.6-10.6H111.3c-5.9,0-10.6,4.7-10.6,10.6v98.3
		c0,5.9,4.7,10.6,10.6,10.6h132.8c5.9,0,10.6-4.7,10.6-10.6v-22.3l36.5,22.5h0.9c3.9,0,6.9-3.7,6.9-8.2v-82.2
		C299.2,276.6,296.1,272.9,292.2,272.9z M248.5,371.3c0,2.4-1.9,4.2-4.2,4.2h-133c-2.4,0-4.1-1.9-4.2-4.2V273c0-2.4,1.9-4.1,4.2-4.2
		h133c2.4,0,4.2,1.9,4.2,4.2L248.5,371.3L248.5,371.3z M292.8,365l-38-23.4v-42.7l38-19.5V365z"/>
	<path class="st0" d="M130.9,244.2c4,3.3,8.9,5.2,14.1,5.4l64.2,0.1l0,0l1.4-0.1c13-0.5,23.1-11.5,22.6-24.5
		c-0.2-6.2-2.9-12.1-7.5-16.4c-4.6-4.2-10.6-6.5-17-6.2c-13,0.5-23.1,11.5-22.6,24.5c0.2,5.1,2.1,10,5.3,13.9l1.9,2.4h-31l1.9-2.4
		c8.2-10.1,6.8-25.1-3.3-33.3s-25.1-6.8-33.3,3.3C119.3,220.9,120.9,235.8,130.9,244.2z M192.5,225.9c0-9.5,7.8-17.3,17.2-17.3l0,0
		l0,0c9.5,0,17.3,7.8,17.3,17.2c0,9.5-7.8,17.3-17.3,17.3l0,0C200.2,243.1,192.5,235.5,192.5,225.9z M133.7,213.7
		c3.3-3.3,7.7-5.1,12.2-5.1l0,0c4.6,0,8.9,1.8,12.2,5.1c3.3,3.3,5.1,7.7,5.1,12.2c0,9.5-7.8,17.3-17.3,17.3l0,0
		c-9.5,0-17.2-7.8-17.3-17.3C128.6,221.3,130.4,217,133.7,213.7z"/>
</g>
</svg>
